<svg width="480" height="360" viewBox="0 0 480 360" fill="none" xmlns="http://www.w3.org/2000/svg">
  <rect width="480" height="360" rx="32" fill="#020817"/>
  <path d="M0 248H480V328C480 338.493 471.493 347 461 347H19C8.50659 347 0 338.493 0 328V248Z" fill="#0F172A"/>
  <path d="M52 248C52 207.34 85.3401 174 126 174H354C394.66 174 428 207.34 428 248V256H52V248Z" fill="#F43F5E" fill-opacity="0.8"/>
  <circle cx="160" cy="286" r="24" fill="#020817" stroke="#F8FAFC" stroke-width="6"/>
  <circle cx="320" cy="286" r="24" fill="#020817" stroke="#F8FAFC" stroke-width="6"/>
  <rect x="132" y="120" width="216" height="92" rx="20" fill="#0F172A" stroke="#F87171" stroke-width="4"/>
  <path d="M76 112L120 96" stroke="#F43F5E" stroke-width="6" stroke-linecap="round"/>
  <path d="M360 96L404 112" stroke="#F43F5E" stroke-width="6" stroke-linecap="round"/>
  <circle cx="240" cy="68" r="20" fill="#F59E0B"/>
  <path d="M240 68L256 120H224L240 68Z" fill="#F59E0B"/>
</svg>
